<svg width="573" height="95" viewBox="0 0 573 95" fill="none" xmlns="http://www.w3.org/2000/svg">
<path d="M524.52 76.46H531.54L527.33 83.4795H517.5V69.6201H516.42C514.98 72.38 512.85 74.4203 510.03 75.7402C507.27 77.0602 504.54 77.7197 501.84 77.7197C497.88 77.7197 494.28 76.8502 491.04 75.1104C487.8 73.3104 485.22 70.7002 483.3 67.2803C481.38 63.8604 480.42 59.7202 480.42 54.8604V53.4199C480.42 48.5599 481.38 44.4498 483.3 41.0898C485.28 37.6699 487.86 35.0598 491.04 33.2598C494.28 31.4598 497.82 30.5596 501.66 30.5596C504.72 30.5596 507.57 31.2499 510.21 32.6299C512.91 33.9499 514.98 36.0199 516.42 38.8398H517.5V13.46H524.52V76.46ZM406.229 30.5703C410.009 30.5703 413.37 31.3203 416.31 32.8203C419.31 34.2603 421.74 36.2706 423.6 38.8506C425.519 41.4304 426.749 44.3702 427.289 47.6699L420.27 49.29C420.03 47.1901 419.339 45.2404 418.199 43.4404C417.059 41.5805 415.47 40.0804 413.43 38.9404C411.45 37.8005 408.99 37.2305 406.05 37.2305C403.11 37.2305 400.53 37.9507 398.13 39.3906C395.79 40.7706 393.9 42.7204 392.46 45.2402C391.08 47.7002 390.39 50.5502 390.39 53.79V54.8701C390.39 58.2301 391.08 61.1406 392.46 63.6006C393.9 66.0004 395.82 67.8607 398.22 69.1807C400.62 70.4405 403.29 71.0703 406.229 71.0703C409.169 71.0703 411.629 70.5003 413.609 69.3604C415.649 68.1604 417.209 66.6603 418.289 64.8604C419.429 63.0005 420.149 61.0506 420.449 59.0107L427.47 60.6299C426.87 63.9299 425.639 66.8702 423.779 69.4502C421.919 72.0302 419.489 74.0703 416.489 75.5703C413.549 77.0103 410.129 77.7305 406.229 77.7305C402.09 77.7305 398.28 76.8601 394.8 75.1201C391.32 73.3201 388.5 70.71 386.34 67.29C384.24 63.87 383.189 59.7301 383.189 54.8701V53.79C383.189 48.9902 384.24 44.8501 386.34 41.3701C388.5 37.8903 391.32 35.2203 394.8 33.3604C398.28 31.5004 402.09 30.5703 406.229 30.5703ZM454.12 30.5703C458.08 30.5703 461.74 31.4706 465.1 33.2705C468.52 35.0705 471.28 37.7104 473.38 41.1904C475.48 44.6104 476.53 48.7504 476.53 53.6104V54.6904C476.53 59.6104 475.48 63.7802 473.38 67.2002C471.28 70.6202 468.52 73.2303 465.1 75.0303C461.74 76.8302 458.08 77.7304 454.12 77.7305C450.16 77.7305 446.47 76.8303 443.05 75.0303C439.69 73.2303 436.96 70.6201 434.86 67.2002C432.76 63.7802 431.71 59.6104 431.71 54.6904V53.6104C431.71 48.7504 432.76 44.6104 434.86 41.1904C436.96 37.7105 439.69 35.0705 443.05 33.2705C446.47 31.4705 450.16 30.5703 454.12 30.5703ZM551.94 30.5703C555.6 30.5703 558.751 31.2308 561.391 32.5508C564.09 33.8707 566.281 35.5499 567.961 37.5898C569.701 39.6298 570.96 41.8202 571.74 44.1602C572.58 46.4402 573 48.5708 573 50.5508V56.3105H537C537.18 60.6904 538.561 64.2606 541.141 67.0205C543.781 69.7204 547.381 71.0703 551.94 71.0703C556.2 71.0703 559.38 70.1701 561.48 68.3701C563.58 66.5702 565.021 64.4105 565.801 61.8906L572.461 63.6904C571.201 67.8304 568.86 71.2204 565.44 73.8604C562.08 76.4403 557.521 77.7304 551.761 77.7305C547.501 77.7305 543.721 76.7704 540.421 74.8506C537.181 72.8706 534.631 70.17 532.771 66.75C530.911 63.2701 529.98 59.2503 529.98 54.6904V52.5303C529.98 48.3303 530.94 44.5803 532.86 41.2803C534.78 37.9803 537.39 35.3702 540.69 33.4502C544.05 31.5302 547.8 30.5703 551.94 30.5703ZM454.12 37.2305C451.3 37.2305 448.72 37.9208 446.38 39.3008C444.1 40.6808 442.27 42.6006 440.89 45.0605C439.57 47.5205 438.91 50.3705 438.91 53.6104V54.6904C438.91 58.0502 439.57 60.96 440.89 63.4199C442.27 65.8798 444.1 67.7699 446.38 69.0898C448.72 70.4098 451.3 71.0703 454.12 71.0703C457 71.0703 459.58 70.4098 461.86 69.0898C464.14 67.7699 465.94 65.8797 467.26 63.4199C468.64 60.96 469.33 58.0503 469.33 54.6904V53.6104C469.33 50.3704 468.64 47.5205 467.26 45.0605C465.94 42.6005 464.11 40.6808 461.77 39.3008C459.49 37.9208 456.94 37.2305 454.12 37.2305ZM502.56 37.2197C499.74 37.2198 497.19 37.9101 494.91 39.29C492.69 40.61 490.92 42.5 489.6 44.96C488.28 47.3599 487.62 50.18 487.62 53.4199V54.8604C487.62 58.1602 488.25 61.0401 489.51 63.5C490.83 65.9 492.63 67.7601 494.91 69.0801C497.19 70.3999 499.74 71.0595 502.56 71.0596C505.38 71.0596 507.9 70.4001 510.12 69.0801C512.4 67.7002 514.2 65.7801 515.52 63.3203C516.84 60.8603 517.5 57.9797 517.5 54.6797V53.5996C517.5 50.4198 516.81 47.5996 515.43 45.1396C514.11 42.6799 512.31 40.7598 510.03 39.3799C507.81 37.9399 505.38 37.2197 502.56 37.2197ZM551.94 37.2305C547.98 37.2305 544.65 38.4301 541.95 40.8301C539.25 43.23 537.661 46.2302 537.181 49.8301H565.98C565.86 47.2502 565.11 45.0299 563.73 43.1699C562.411 41.2501 560.7 39.7807 558.601 38.7607C556.501 37.7407 554.28 37.2305 551.94 37.2305Z" fill="black"/>
<path d="M289.351 30.5703C292.95 30.5704 295.8 31.2607 297.9 32.6406C300.06 33.9606 301.711 35.8507 302.851 38.3105H304.47V31.8301H315.811V87.4502C315.811 89.4902 315.15 91.1702 313.83 92.4902C312.57 93.8102 310.92 94.4707 308.88 94.4707H278.82L285.33 83.6699H302.04C303.66 83.6699 304.47 82.7704 304.47 80.9707V69.9902H302.851C301.951 71.9702 300.451 73.7707 298.351 75.3906C296.311 76.9506 293.16 77.7304 288.9 77.7305C285.24 77.7305 281.94 76.8601 279 75.1201C276.06 73.3201 273.72 70.7398 271.98 67.3799C270.241 63.9599 269.37 59.8199 269.37 54.96V53.3398C269.37 48.5401 270.27 44.4605 272.07 41.1006C273.93 37.6806 276.36 35.0705 279.36 33.2705C282.42 31.4705 285.751 30.5703 289.351 30.5703ZM191.159 30.5703C195.239 30.5703 199.05 31.4705 202.59 33.2705C206.13 35.0705 208.98 37.7106 211.14 41.1904C213.3 44.6104 214.38 48.7504 214.38 53.6104V54.6904C214.38 59.6103 213.3 63.7803 211.14 67.2002C208.98 70.6201 206.13 73.2303 202.59 75.0303C199.05 76.8303 195.239 77.7305 191.159 77.7305C187.079 77.7304 183.269 76.8302 179.729 75.0303C176.189 73.2303 173.34 70.6202 171.18 67.2002C169.02 63.7802 167.939 59.6104 167.939 54.6904V53.6104C167.939 48.7504 169.02 44.6104 171.18 41.1904C173.34 37.7105 176.19 35.0705 179.729 33.2705C183.269 31.4705 187.079 30.5704 191.159 30.5703ZM342.71 30.5703C346.55 30.5703 349.85 31.2308 352.61 32.5508C355.37 33.8707 357.62 35.5808 359.36 37.6807C361.16 39.7806 362.48 42.0905 363.32 44.6104C364.22 47.0703 364.67 49.4706 364.67 51.8105V57.8398H331.91C332.03 60.4798 333.14 62.6702 335.24 64.4102C337.34 66.0901 339.83 66.9307 342.71 66.9307C345.59 66.9307 347.69 66.4204 349.19 65.4004C350.75 64.3805 351.83 63.2104 352.43 61.8906L362.15 67.29C361.49 68.79 360.38 70.3507 358.82 71.9707C357.32 73.5907 355.28 74.9704 352.7 76.1104C350.12 77.1904 346.85 77.7305 342.89 77.7305C338.45 77.7304 334.52 76.8004 331.1 74.9404C327.68 73.0204 325.01 70.2899 323.09 66.75C321.17 63.2101 320.21 58.9504 320.21 53.9707V53.4307C320.21 48.8707 321.23 44.88 323.27 41.46C325.31 38.04 328.01 35.3702 331.37 33.4502C334.79 31.5303 338.57 30.5703 342.71 30.5703ZM250.57 30.5703C255.01 30.5703 258.58 31.9808 261.28 34.8008C263.98 37.5608 265.33 41.7905 265.33 47.4902V49.4707L253.63 50.5508V49.29C253.63 46.8302 253 44.8804 251.74 43.4404C250.48 41.9405 248.59 41.1905 246.07 41.1904C243.55 41.1904 241.57 42.0608 240.13 43.8008C238.69 45.5408 237.97 48.0308 237.97 51.2705V65.6699H248.23V76.4707H217.45L223.83 65.6699H226.63V42.6299H218.53V31.8301H237.431V38.3105H239.05C239.89 35.8506 241.33 33.9606 243.37 32.6406C245.41 31.2606 247.81 30.5703 250.57 30.5703ZM164.32 24.8096H135.88V39.21H161.47V50.5498H135.88V76.4697H124V13.4697H164.32V24.8096ZM191.159 41.3701C187.859 41.3702 185.039 42.4206 182.699 44.5205C180.419 46.6204 179.279 49.5303 179.279 53.25V55.0508C179.279 58.7105 180.419 61.6204 182.699 63.7803C185.039 65.8802 187.859 66.9306 191.159 66.9307C194.459 66.9307 197.249 65.8802 199.529 63.7803C201.869 61.6204 203.039 58.7106 203.039 55.0508V53.25C203.039 49.5302 201.869 46.6204 199.529 44.5205C197.249 42.4205 194.459 41.3701 191.159 41.3701ZM292.59 41.3701C289.05 41.3702 286.26 42.4803 284.04 44.7002C281.82 46.9202 280.71 49.8904 280.71 53.6104V54.6904C280.71 58.4104 281.82 61.3806 284.04 63.6006C286.26 65.8205 289.11 66.9306 292.59 66.9307C296.13 66.9307 298.98 65.8203 301.14 63.6006C303.36 61.3206 304.47 58.3504 304.47 54.6904V53.6104C304.47 49.9504 303.36 47.01 301.14 44.79C298.98 42.5103 296.13 41.3701 292.59 41.3701ZM342.62 40.8301C339.74 40.8301 337.46 41.5801 335.6 43.0801C333.8 44.52 332.63 46.2002 332.09 48.1201H353.15C352.79 46.0202 351.649 44.2804 349.729 42.9004C347.87 41.5205 345.5 40.8301 342.62 40.8301Z" fill="black"/>
<path d="M100 39.1107V49.114C96.135 49.114 92.9891 52.265 92.9891 56.1462V72.2649C92.9891 80.9477 85.9383 88 77.2795 88H55.4479L61.4401 77.9968H77.2795C80.4354 77.9968 83.0021 75.4259 83.0021 72.2649V56.1462C83.0021 51.4447 84.9096 47.2034 87.9756 44.1124C84.9096 41.0314 83.0021 36.78 83.0021 32.0885V15.7251C83.0021 12.5741 80.4354 10.0032 77.2795 10.0032H60.7111C57.5552 10.0032 54.9885 12.5741 54.9885 15.7251L54.9885 39.1107H69.6894V49.114H54.9885V72.2649C54.9885 80.9477 47.9477 88 39.2889 88H22.7205C14.0617 88 7.01089 80.9477 7.01089 72.2649V56.1462C7.01089 52.265 3.86498 49.114 0 49.114V39.1107C3.86498 39.1107 7.01089 35.9597 7.01089 32.0885L7.01088 15.7251C7.01088 7.05228 14.0617 0 22.7205 0H44.5521L38.5599 10.0032H22.7205C19.5646 10.0032 16.9979 12.5741 16.9979 15.7251L16.9979 32.0885C16.9979 36.78 15.0904 41.0314 12.0244 44.1124C15.0904 47.2034 16.9979 51.4447 16.9979 56.1462V72.2649C16.9979 75.4259 19.5646 77.9968 22.7205 77.9968H39.2889C42.4348 77.9968 45.0015 75.4259 45.0015 72.2649L45.0015 15.7251C45.0015 7.05228 52.0523 0 60.7111 0H77.2795C85.9383 0 92.9891 7.05228 92.9891 15.7251L92.9891 32.0885C92.9891 35.9597 96.135 39.1107 100 39.1107Z" fill="black"/>
</svg>
